<svg width="43" height="62" viewBox="0 0 43 62" fill="none" xmlns="http://www.w3.org/2000/svg">
<g clip-path="url(#clip0_2230_242)">
<path opacity="0.2" d="M35 58.4C35 60.4 28.8 62 21.2 62C13.6 62 7.40002 60.4 7.40002 58.4C7.40002 56.4 13.6 54.8 21.2 54.8C28.8 54.7 35 56.4 35 58.4Z" fill="#05141F"/>
<path d="M21.4 0C9.6 0 0 9.6 0 21.4C0 34 21.4 58.5 21.4 58.5C21.4 58.5 42.8 35 42.8 21.4C42.8 9.6 33.2 0 21.4 0ZM21.4 33.7C14.1 33.7 8.2 27.8 8.2 20.5C8.2 13.2 14.1 7.3 21.4 7.3C28.7 7.3 34.6 13.2 34.6 20.5C34.6 27.8 28.7 33.7 21.4 33.7Z" fill="#010101"/>
<path d="M21.7 38.4C30.9232 38.4 38.4 30.9232 38.4 21.7C38.4 12.4768 30.9232 5 21.7 5C12.4768 5 5 12.4768 5 21.7C5 30.9232 12.4768 38.4 21.7 38.4Z" fill="white"/>
<g clip-path="url(#clip1_2230_242)">
<path opacity="0.992" fill-rule="evenodd" clip-rule="evenodd" d="M34.0361 13.9632C31.4819 13.9632 28.9277 13.9632 26.3735 13.9632C26.3735 15.6559 26.3735 17.3485 26.3735 19.0411C23.4819 19.0411 20.5904 19.0411 17.6988 19.0411C17.6988 17.3485 17.6988 15.6559 17.6988 13.9632C15.1446 13.9632 12.5903 13.9632 10.0361 13.9632C10.0361 19.6299 10.0361 25.2965 10.0361 30.9632C12.5903 30.9632 15.1446 30.9632 17.6988 30.9632C17.6988 29.0989 17.6988 27.2345 17.6988 25.3701C20.5904 25.3701 23.4819 25.3701 26.3735 25.3701C26.3735 27.2345 26.3735 29.0989 26.3735 30.9632C28.9277 30.9632 31.4819 30.9632 34.0361 30.9632C34.0361 25.2965 34.0361 19.6299 34.0361 13.9632Z" fill="#626B6F"/>
</g>
</g>
<defs>
<clipPath id="clip0_2230_242">
<rect width="42.8" height="62" fill="white"/>
</clipPath>
<clipPath id="clip1_2230_242">
<rect width="24" height="17" fill="white" transform="matrix(-1 0 0 1 34 14)"/>
</clipPath>
</defs>
</svg>
